<?xml version="1.0" encoding="utf-8"?>
<!-- Generator: Adobe Illustrator 29.8.1, SVG Export Plug-In . SVG Version: 9.03 Build 0)  -->
<svg version="1.0" id="Layer_1" xmlns="http://www.w3.org/2000/svg" xmlns:xlink="http://www.w3.org/1999/xlink" x="0px" y="0px"
	 viewBox="0 0 439.93 128.19" style="enable-background:new 0 0 439.93 128.19;" xml:space="preserve">
<style type="text/css">
	.st0{fill:#273D8F;}
</style>
<g>
	<g>
		<path class="st0" d="M69.29,0C20.98,0,0.37,14.77,0.37,49.37c0,27.79,26.16,78.82,68.92,78.82c18.81,0,36.74-10.22,50.47-28.77
			c11.21-15.14,18.45-34.79,18.45-50.05C138.21,14.77,117.59,0,69.29,0z M69.29,10.62c48.54,0,58.3,14.83,58.3,38.75
			c0,4.37-0.8,9.49-2.32,14.93c-0.51,1.81-3.11,1.69-3.47-0.16c-4.9-24.5-26.58-43.02-52.5-43.02c-4.34,0-8.67,0.52-12.85,1.55
			c-1.71,0.42-3.17,1.63-3.79,3.27c-1.01,2.69,0.25,5.56,2.7,6.71C67.85,38.54,75,52.67,71.49,66.68
			c-2.96,11.8-13.05,20.76-25.13,22.22c-14,1.69-27.05-6.64-31.58-19.65c0-0.01-0.01-0.02-0.01-0.03
			c-2.42-6.96-3.78-13.83-3.78-19.84C10.99,25.45,20.75,10.62,69.29,10.62z M35.4,102.34c-1.26-1.23-0.2-3.3,1.54-3.04
			c1.91,0.29,3.85,0.43,5.82,0.43c22.19,0,40.24-18.05,40.24-40.24c0-8.91-2.99-17.42-8.2-24.3c-0.97-1.29,0.14-3.11,1.73-2.83
			c20.22,3.46,35.66,21.11,35.66,42.3c0,14.76-7.42,28.25-19.86,36.19c-6.87,4.17-14.59,6.72-23.05,6.72
			C54.73,117.57,43.27,110.01,35.4,102.34z"/>
		<path class="st0" d="M27.19,62.46l6.27,0.59c3.04,0.28,5.46,2.7,5.74,5.74l0.59,6.27c0.15,1.57,1.4,2.71,2.97,2.71h0
			c1.57,0,2.82-1.14,2.97-2.71l0.59-6.27c0.28-3.04,2.7-5.46,5.74-5.74l6.27-0.59c1.57-0.14,2.71-1.39,2.71-2.97
			c0-1.58-1.14-2.82-2.71-2.97l-6.27-0.59c-3.04-0.28-5.46-2.7-5.74-5.74l-0.59-6.27c-0.15-1.57-1.4-2.71-2.97-2.71h0
			c-1.57,0-2.82,1.14-2.97,2.71l-0.59,6.27c-0.28,3.04-2.7,5.46-5.74,5.74l-6.27,0.59c-1.57,0.14-2.71,1.39-2.71,2.97
			C24.49,61.06,25.62,62.31,27.19,62.46z"/>
	</g>
	<g>
		<path class="st0" d="M169.64,79.75c0.44,3.75,2.17,6.57,5.15,8.45c3,1.88,6.82,2.82,11.47,2.82c4.02,0,7.21-0.81,9.58-2.41
			c2.36-1.61,3.55-3.75,3.55-6.44c0-3.93-3-6.56-8.98-7.9l-14.47-2.95c-12.06-2.68-18.09-8.72-18.09-18.09
			c0-6.26,2.39-11.33,7.17-15.21s11.15-5.83,19.1-5.83c7.51,0,13.74,1.76,18.7,5.29c4.96,3.52,8.07,8.15,9.32,13.87l-13.27,2.82
			c-0.54-3.31-2.15-5.94-4.82-7.91c-2.68-1.97-6.12-2.95-10.32-2.95c-3.84,0-6.77,0.82-8.78,2.48c-2.01,1.65-3.02,3.73-3.02,6.23
			c0,3.75,2.68,6.26,8.04,7.51L195.78,63c5.45,1.16,9.69,3.28,12.73,6.37c3.04,3.08,4.56,6.95,4.56,11.59
			c0,6.79-2.55,12.06-7.64,15.81c-5.1,3.75-11.89,5.63-20.37,5.63c-7.86,0-14.52-1.68-19.97-5.03c-5.45-3.35-8.58-8.24-9.38-14.67
			L169.64,79.75z"/>
		<path class="st0" d="M290.09,100.53h-13.95v-7.64c-6.08,6.35-14.12,9.52-24.12,9.52c-9.03,0-16.78-3.28-23.26-9.85
			c-6.48-6.57-9.71-14.99-9.71-25.26c0-10.18,3.26-18.58,9.78-25.2c6.52-6.61,14.25-9.91,23.19-9.91c10,0,18.04,3.17,24.12,9.52
			v-7.65h13.95V100.53z M269.58,83.71c4.37-4.25,6.56-9.72,6.56-16.42s-2.19-12.18-6.56-16.42c-4.38-4.25-9.48-6.37-15.28-6.37
			c-6.26,0-11.44,2.08-15.55,6.24c-4.11,4.15-6.17,9.66-6.17,16.55s2.06,12.4,6.17,16.55c4.11,4.16,9.29,6.23,15.55,6.23
			C260.11,90.07,265.21,87.95,269.58,83.71z"/>
		<path class="st0" d="M403.81,39.41c4.87,4.82,7.31,11.08,7.31,18.76v42.35h-13.81V60.99c0-4.82-1.41-8.69-4.22-11.59
			c-2.82-2.91-6.41-4.35-10.79-4.35c-5.54,0-9.92,1.92-13.14,5.76c-3.21,3.84-4.82,9.43-4.82,16.75v32.97H350.4V60.99
			c0-4.82-1.41-8.69-4.22-11.59c-2.82-2.91-6.41-4.35-10.78-4.35c-5.46,0-9.76,1.92-12.94,5.76c-3.17,3.84-4.76,9.43-4.76,16.75
			v32.97h-13.94V34.04h13.94v7.51c5.1-6.26,12.2-9.38,21.31-9.38c4.82,0,9.18,1.07,13.07,3.21c3.89,2.15,6.9,5.14,9.05,8.98
			c5.8-8.13,14.07-12.19,24.8-12.19C392.98,32.17,398.95,34.59,403.81,39.41z"/>
		<path class="st0" d="M437.37,7.91c1.7,1.7,2.55,3.75,2.55,6.17c0,2.5-0.83,4.55-2.49,6.17c-1.65,1.61-3.77,2.41-6.36,2.41
			s-4.73-0.81-6.43-2.41c-1.7-1.61-2.55-3.66-2.55-6.17c0-2.41,0.85-4.47,2.55-6.17c1.7-1.7,3.84-2.55,6.43-2.55
			C433.58,5.36,435.68,6.21,437.37,7.91z M424.1,100.53V34.04h13.95v66.48H424.1z"/>
	</g>
</g>
</svg>
